<svg width="22" height="13" viewBox="0 0 22 13" fill="none" xmlns="http://www.w3.org/2000/svg">
<path d="M1.5 1H1V2H1.5V1.5V1ZM4.5 2H5V1H4.5V1.5V2ZM1 2.5V2H0V2.5H0.5H1ZM0 5.5V6H1V5.5H0.5H0ZM6 2.5V2H5V2.5H5.5H6ZM5 3.5V4H6V3.5H5.5H5ZM6.5 4H6V5H6.5V4.5V4ZM8.5 5H9V4H8.5V4.5V5ZM10 2.5V2H9V2.5H9.5H10ZM9 3.5V4H10V3.5H9.5H9ZM10.5 1H10V2H10.5V1.5V1ZM13.5 2H14V1H13.5V1.5V2ZM15 2.5V2H14V2.5H14.5H15ZM14 5.5V6H15V5.5H14.5H14ZM17.5 0H17V1H17.5V0.5V0ZM20.5 1H21V0H20.5V0.5V1ZM17 1.5V1H16V1.5H16.5H17ZM16 4.5V5H17V4.5H16.5H16ZM17.5 5H17V6H17.5V5.5V5ZM20.5 6H21V5H20.5V5.5V6ZM22 6.5V6H21V6.5H21.5H22ZM21 11.5V12H22V11.5H21.5H21ZM20.5 13H21V12H20.5V12.5V13ZM1.5 12H1V13H1.5V12.5V12ZM0 11.5V12H1V11.5H0.5H0ZM1 7.5V7H0V7.5H0.5H1ZM5 7.5V7H4V7.5H4.5H5ZM4 8.5V9H5V8.5H4.5H4ZM5.5 9H5V10H5.5V9.5V9ZM6.5 10H7V9H6.5V9.5V10ZM8.5 9H8V10H8.5V9.5V9ZM9.5 10H10V9H9.5V9.5V10ZM10 8.5V9H11V8.5H10.5H10ZM11 7.5V7H10V7.5H10.5H11ZM1.5 1.5V2H4.5V1.5V1H1.5V1.5ZM0.5 2.5H0V5.5H0.5H1V2.5H0.5ZM5.5 2.5H5V3.5H5.5H6V2.5H5.5ZM6.5 4.5V5H8.5V4.5V4H6.5V4.5ZM9.5 2.5H9V3.5H9.5H10V2.5H9.5ZM10.5 1.5V2H13.5V1.5V1H10.5V1.5ZM14.5 2.5H14V5.5H14.5H15V2.5H14.5ZM17.5 0.5V1H20.5V0.5V0H17.5V0.5ZM16.5 1.5H16V4.5H16.5H17V1.5H16.5ZM17.5 5.5V6H20.5V5.5V5H17.5V5.5ZM21.5 6.5H21V11.5H21.5H22V6.5H21.5ZM20.5 12.5V12H1.5V12.5V13H20.5V12.5ZM0.5 11.5H1V7.5H0.5H0V11.5H0.5ZM4.5 7.5H4V8.5H4.5H5V7.5H4.5ZM5.5 9.5V10H6.5V9.5V9H5.5V9.5ZM8.5 9.5V10H9.5V9.5V9H8.5V9.5ZM10.5 8.5H11V7.5H10.5H10V8.5H10.5ZM7 8.5V9H8V8.5V8H7V8.5Z" fill="#818181"/>
</svg>
